# xmcd
#
# Track frame offsets: 
#        151
#        18180
#        32995
#        52904
#        68681
#        87322
#        100477
#        121542
#        141465
#        157032
#
# Disc length: 2328 seconds
#
# Revision: 0
# Processed by: cddbd v1.5.1PL2 Copyright (c) Steve Scherf et al.
# Submitted via: ExactAudioCopy v0.95b4
#
DISCID=7f09160a
DTITLE=เอม  อภัสรา - ผู้บ่าวเมียเผลอ
DYEAR=2003
DGENRE=Country
TTITLE0=มักบ่าวโลโซ
TTITLE1=ผู้บ่าวเมียเผลอ
TTITLE2=หักอกก่อนอกหัก
TTITLE3=แตงโมพันธุ์ใหม่
TTITLE4=มักย้อนเขาย่อง
TTITLE5=กล้าๆ หน่อย
TTITLE6=ลมล่าคนหลายใจ
TTITLE7=จบกันด้วยงานแต่ง
TTITLE8=บุญน้อยบ่ถึง
TTITLE9=น้ำตาหล่นบนโรงแรม
EXTD=
EXTT0=
EXTT1=
EXTT2=
EXTT3=
EXTT4=
EXTT5=
EXTT6=
EXTT7=
EXTT8=
EXTT9=
PLAYORDER=
